<svg width="28" height="28" viewBox="0 0 28 28" fill="none" xmlns="http://www.w3.org/2000/svg">
<path d="M10.0602 18.7008C10.2574 18.8401 10.4831 18.9338 10.721 18.975C10.9589 19.0163 11.203 19.0041 11.4356 18.9394C11.6682 18.8747 11.8835 18.7591 12.0659 18.6009C12.2483 18.4427 12.3932 18.2459 12.4902 18.0248L13.2602 15.6848C13.4476 15.122 13.7635 14.6105 14.1829 14.1908C14.6022 13.7711 15.1134 13.4548 15.6762 13.2668L17.9142 12.5398C18.2319 12.4286 18.5068 12.2205 18.7002 11.9448C18.8491 11.7355 18.946 11.4938 18.9831 11.2396C19.0202 10.9853 18.9963 10.726 18.9133 10.4828C18.8304 10.2397 18.6908 10.0198 18.5061 9.8412C18.3214 9.66263 18.0969 9.53054 17.8512 9.45584L15.6362 8.73584C15.073 8.54904 14.5611 8.23363 14.1411 7.81462C13.721 7.39561 13.4044 6.88451 13.2162 6.32184L12.4892 4.08484C12.3773 3.76796 12.1697 3.49365 11.8952 3.29984C11.6189 3.10934 11.2912 3.00732 10.9557 3.00732C10.6201 3.00732 10.2924 3.10934 10.0162 3.29984C9.73713 3.49691 9.52722 3.7768 9.41616 4.09984L8.68016 6.36484C8.4926 6.91301 8.18272 7.41129 7.774 7.82191C7.36528 8.23254 6.86845 8.54473 6.32116 8.73484L4.08116 9.46084C3.76242 9.57351 3.48672 9.78273 3.29243 10.0594C3.09813 10.3361 2.9949 10.6664 2.9971 11.0045C2.9993 11.3425 3.10682 11.6715 3.3047 11.9456C3.50258 12.2197 3.78098 12.4253 4.10116 12.5338L6.31716 13.2538C7.03571 13.4947 7.66735 13.942 8.13316 14.5398C8.39916 14.8828 8.60416 15.2678 8.73916 15.6798L9.46716 17.9138C9.57916 18.2318 9.78716 18.5068 10.0622 18.7008H10.0602ZM19.8042 24.7808C20.0077 24.9247 20.2509 25.0016 20.5002 25.0008C20.7477 25.0016 20.9894 24.9258 21.1922 24.7838C21.4004 24.6359 21.5566 24.4259 21.6382 24.1838L22.0102 23.0408C22.0888 22.8035 22.2216 22.5877 22.3981 22.4107C22.5747 22.2336 22.79 22.1002 23.0272 22.0208L24.1932 21.6428C24.4284 21.5593 24.6322 21.4051 24.7766 21.2015C24.9211 20.9978 24.9991 20.7545 25.0002 20.5048C25.0002 20.2488 24.9182 19.9994 24.7664 19.7932C24.6145 19.587 24.4007 19.4348 24.1562 19.3588L23.0122 18.9888C22.7747 18.9101 22.5589 18.7771 22.3818 18.6004C22.2048 18.4237 22.0713 18.2081 21.9922 17.9708L21.6122 16.8078C21.5302 16.5705 21.3759 16.3648 21.1709 16.2198C20.9658 16.0748 20.7205 15.9977 20.4694 15.9995C20.2183 16.0013 19.9741 16.0817 19.7711 16.2296C19.5682 16.3775 19.4168 16.5853 19.3382 16.8238L18.9642 17.9698C18.8875 18.204 18.7581 18.4175 18.586 18.5939C18.4138 18.7702 18.2035 18.9046 17.9712 18.9868L16.8052 19.3648C16.5697 19.4485 16.3658 19.6028 16.2214 19.8066C16.077 20.0105 15.999 20.254 15.9982 20.5038C15.9984 20.7559 16.0781 21.0015 16.2258 21.2058C16.3735 21.4101 16.5818 21.5626 16.8212 21.6418L17.9652 22.0138C18.2033 22.0928 18.4195 22.2265 18.5967 22.4042C18.7738 22.5818 18.9069 22.7985 18.9852 23.0368L19.3642 24.1998C19.4469 24.4348 19.6006 24.6372 19.8042 24.7808Z" fill="#94EEC3"/>
</svg>
