<svg width="56" height="56" viewBox="0 0 56 56" fill="none" xmlns="http://www.w3.org/2000/svg">
<path d="M46.7563 10.4674L46.6777 10.5226C48.0569 11.9394 49.2661 13.5136 50.2804 15.2128C57.4779 27.0567 53.2144 43.0617 41.3837 50.0733C22.5364 61.2776 -0.951918 43.9618 4.55439 22.5481C8.99877 5.77719 28.7114 -1.51862 42.6266 9.0698L43.5548 7.79065L44.4751 6.51151C35.9089 0.100028 23.5118 -0.476366 14.4815 5.31134C-1.51041 15.3313 -2.82406 38.6637 12.7431 49.7496C16.2156 52.2967 20.2613 53.9432 24.5205 54.5429C28.7797 55.1425 33.1205 54.6766 37.1572 53.1866C41.1938 51.6967 44.8012 49.2288 47.6588 46.0022C50.5163 42.7757 52.5356 38.8906 53.5369 34.692C54.5642 30.4091 54.4803 25.9334 53.2932 21.6923C52.1061 17.4512 49.8555 13.5865 46.7563 10.4674Z" fill="url(#paint0_angular_609_228)"/>
<path d="M18.4919 29.4804C18.4667 28.9182 18.5608 28.3571 18.7681 27.833C18.9753 27.3088 19.2912 26.8333 19.6953 26.437C20.0994 26.0406 20.583 25.7322 21.1148 25.5315C21.6467 25.3307 22.2152 25.2421 22.7837 25.2713C23.348 25.2415 23.9122 25.3296 24.4396 25.53C24.9671 25.7304 25.4458 26.0385 25.8445 26.4341C26.2433 26.8298 26.5531 27.3042 26.7538 27.8263C26.9544 28.3484 27.0414 28.9064 27.009 29.4639V33.5744H25.254V31.8233C25.0251 32.366 24.6321 32.8254 24.1289 33.1389C23.6257 33.4523 23.0367 33.6044 22.4427 33.5744C21.9053 33.5822 21.372 33.4802 20.8764 33.2747C20.3808 33.0692 19.9335 32.7647 19.5625 32.3803C19.1916 31.9959 18.905 31.5399 18.7207 31.0409C18.5365 30.5419 18.4586 30.0106 18.4919 29.4804ZM25.096 29.3982C25.0845 28.9435 24.9375 28.5024 24.6735 28.13C24.4094 27.7576 24.0401 27.4705 23.6116 27.3047C23.1832 27.1389 22.7148 27.1017 22.2651 27.1979C21.8154 27.2941 21.4044 27.5194 21.0837 27.8454C20.763 28.1715 20.5467 28.5839 20.4621 29.0309C20.3775 29.4779 20.4283 29.9396 20.608 30.3582C20.7878 30.7769 21.0885 31.1337 21.4726 31.3841C21.8567 31.6345 22.307 31.7673 22.7671 31.7658C23.0816 31.7767 23.395 31.7225 23.687 31.6065C23.979 31.4905 24.2432 31.3154 24.4626 31.0923C24.682 30.8693 24.8517 30.6033 24.9608 30.3115C25.0699 30.0197 25.1159 29.7086 25.096 29.3982Z" fill="#103294"/>
<path d="M27.6769 29.2668C27.6499 28.7399 27.7313 28.2131 27.9162 27.719C28.1011 27.2248 28.3855 26.774 28.7517 26.3945C29.1179 26.0149 29.5582 25.7146 30.0451 25.5124C30.5321 25.3102 31.0554 25.2103 31.5826 25.2188C32.0981 25.1972 32.6103 25.31 33.0691 25.546C33.5279 25.7821 33.9176 26.1334 34.2 26.5654V22.6406H36.0872V29.275C36.1193 29.8327 36.0333 30.3908 35.8348 30.9128C35.6364 31.4349 35.33 31.9091 34.9357 32.3044C34.5415 32.6998 34.0682 33.0073 33.5469 33.2069C33.0256 33.4064 32.4681 33.4936 31.9108 33.4626C31.3506 33.4917 30.7906 33.4034 30.2665 33.2034C29.7424 33.0034 29.2658 32.696 28.8673 32.3011C28.4687 31.9061 28.157 31.4322 27.952 30.9097C27.747 30.3872 27.6533 29.8276 27.6769 29.2668ZM34.2 29.349C34.1903 28.8929 34.0462 28.4498 33.7858 28.0754C33.5253 27.701 33.1602 27.4119 32.7361 27.2444C32.3121 27.0769 31.8481 27.0386 31.4023 27.1341C30.9566 27.2296 30.5489 27.4547 30.2306 27.7812C29.9122 28.1077 29.6973 28.521 29.6129 28.9693C29.5285 29.4176 29.5782 29.8809 29.756 30.301C29.9337 30.7211 30.2315 31.0793 30.6119 31.3306C30.9924 31.582 31.4385 31.7152 31.8944 31.7137C32.2053 31.7258 32.5154 31.6725 32.8044 31.5571C33.0935 31.4418 33.3551 31.2671 33.5725 31.0442C33.7898 30.8213 33.9579 30.5552 34.066 30.2632C34.1741 29.9712 34.2198 29.6597 34.2 29.349Z" fill="#103294"/>
<path d="M36.8668 29.4934C36.842 28.9331 36.9348 28.3737 37.1392 27.8513C37.3436 27.3289 37.6551 26.8549 38.0537 26.4598C38.4523 26.0647 38.9292 25.7573 39.4537 25.5572C39.9783 25.3571 40.5448 25.2411 41.1056 25.2702C41.6624 25.2406 42.2134 25.3561 42.734 25.5558C43.2545 25.7555 43.7272 26.0624 44.1211 26.4567C44.515 26.8509 44.8214 27.3236 45.0202 27.844C45.2191 28.3644 45.306 28.9209 45.2752 29.477V33.5743H43.5443V31.8289C43.317 32.3704 42.928 32.8287 42.4303 33.1411C41.9325 33.4534 41.3504 33.6047 40.7634 33.5743C40.2333 33.5821 39.7074 33.4804 39.2186 33.2755C38.7298 33.0707 38.2886 32.7672 37.9227 32.3841C37.5568 32.0009 37.2742 31.5463 37.0925 31.0489C36.9108 30.5515 36.8339 30.0219 36.8668 29.4934ZM43.3802 29.4115C43.3689 28.9583 43.224 28.5186 42.9635 28.1474C42.7031 27.7762 42.3388 27.49 41.9163 27.3247C41.4937 27.1595 41.0317 27.1224 40.5882 27.2183C40.1447 27.3142 39.7394 27.5387 39.423 27.8638C39.1067 28.1888 38.8934 28.5998 38.81 29.0454C38.7265 29.4909 38.7766 29.9512 38.9539 30.3685C39.1311 30.7857 39.4278 31.1414 39.8066 31.391C40.1854 31.6406 40.6295 31.773 41.0833 31.7715C41.3935 31.7824 41.7025 31.7283 41.9906 31.6127C42.2786 31.4971 42.5392 31.3225 42.7555 31.1002C42.9719 30.8779 43.1393 30.6127 43.2469 30.3219C43.3545 30.0311 43.3999 29.7209 43.3802 29.4115Z" fill="#103294"/>
<path d="M16.0489 31.7055C15.7367 31.716 15.4257 31.6629 15.1354 31.5495C14.8452 31.4361 14.5819 31.2649 14.3622 31.0466C14.1425 30.8284 13.9712 30.5678 13.8589 30.2813C13.7467 29.9948 13.696 29.6885 13.71 29.3818V27.0991H15.9236V25.2106H13.7016V22.6406H11.7804V25.2106H10.8281V27.0991H11.7888V29.2751C11.7549 29.8323 11.8413 30.3902 12.0423 30.9122C12.2434 31.4343 12.5545 31.9086 12.9553 32.3041C13.356 32.6996 13.8373 33.0072 14.3676 33.2069C14.8979 33.4066 15.4652 33.4937 16.0322 33.4626C16.6478 33.47 17.2585 33.3555 17.8281 33.126V30.9418C17.6077 31.1909 17.3338 31.3886 17.026 31.5207C16.7183 31.6528 16.3845 31.7159 16.0489 31.7055Z" fill="#103294"/>
<defs>
<radialGradient id="paint0_angular_609_228" cx="0" cy="0" r="1" gradientUnits="userSpaceOnUse" gradientTransform="translate(28 28.0547) rotate(33.5794) scale(29.4306 28.9384)">
<stop offset="0.0401757" stop-color="#EFD45A"/>
<stop offset="0.160046" stop-color="#C3AF50"/>
<stop offset="0.194577" stop-color="#997826"/>
<stop offset="0.293702" stop-color="#103294"/>
<stop offset="0.675594" stop-color="#103294"/>
<stop offset="0.756776" stop-color="#103294"/>
<stop offset="0.782503" stop-color="#F9DC5C"/>
</radialGradient>
</defs>
</svg>
