<svg width="48" height="48" viewBox="0 0 48 48" fill="none" xmlns="http://www.w3.org/2000/svg">
<rect width="48" height="48" rx="24" fill="#D9EADC"/>
<path d="M28 14C25.24 14 23 16.24 23 19C23 21.76 25.24 24 28 24C30.76 24 33 21.76 33 19C33 16.24 30.76 14 28 14ZM28 22C26.34 22 25 20.66 25 19C25 17.34 26.34 16 28 16C29.66 16 31 17.34 31 19C31 20.66 29.66 22 28 22ZM31 28H29C29 26.8 28.25 25.72 27.13 25.3L20.97 23H13V34H19V32.56L26 34.5L34 32V31C34 29.34 32.66 28 31 28ZM17 32H15V25H17V32ZM25.97 32.41L19 30.5V25H20.61L26.43 27.17C26.77 27.3 27 27.63 27 28C27 28 25 27.95 24.7 27.85L22.32 27.06L21.69 28.96L24.07 29.75C24.58 29.92 25.11 30 25.65 30H31C31.39 30 31.74 30.24 31.9 30.57L25.97 32.41Z" fill="#518C51"/>
</svg>
