<svg width="25" height="24" viewBox="0 0 25 24" fill="none" xmlns="http://www.w3.org/2000/svg">
<path opacity="0.5" d="M9.49991 20H15.4999C17.3849 20 18.3279 20 18.9139 19.414C19.3849 18.943 19.4769 18.24 19.4949 17H5.50391C5.52191 18.24 5.61391 18.943 6.08491 19.414C6.67091 20 7.61391 20 9.49991 20Z" fill="#518C51"/>
<path d="M11.75 6H9.5C7.614 6 6.672 6 6.086 6.586C5.5 7.172 5.5 8.114 5.5 10V16C5.5 16.368 5.5 16.7 5.504 17H19.496C19.5 16.7 19.5 16.368 19.5 16V10C19.5 8.114 19.5 7.172 18.914 6.586C18.328 6 17.386 6 15.5 6H13.25V10.973L13.93 10.179C13.9941 10.1041 14.0723 10.0426 14.1601 9.99802C14.248 9.95339 14.3438 9.9265 14.442 9.91888C14.5403 9.91127 14.639 9.92308 14.7327 9.95364C14.8264 9.9842 14.9131 10.0329 14.988 10.097C15.0629 10.1611 15.1244 10.2393 15.169 10.3271C15.2136 10.415 15.2405 10.5108 15.2481 10.609C15.2557 10.7073 15.2439 10.806 15.2134 10.8997C15.1828 10.9934 15.1341 11.0801 15.07 11.155L13.07 13.488C12.9996 13.5703 12.9122 13.6364 12.8138 13.6818C12.7154 13.7271 12.6083 13.7506 12.5 13.7506C12.3917 13.7506 12.2846 13.7271 12.1862 13.6818C12.0878 13.6364 12.0004 13.5703 11.93 13.488L9.93 11.155C9.86592 11.0801 9.8172 10.9934 9.78664 10.8997C9.75608 10.806 9.74427 10.7073 9.75188 10.609C9.7595 10.5108 9.78639 10.415 9.83102 10.3271C9.87565 10.2393 9.93715 10.1611 10.012 10.097C10.0869 10.0329 10.1736 9.9842 10.2673 9.95364C10.361 9.92308 10.4597 9.91127 10.558 9.91888C10.6562 9.9265 10.752 9.95339 10.8399 9.99802C10.9277 10.0426 11.0059 10.1041 11.07 10.179L11.75 10.973V6Z" fill="#518C51"/>
<path opacity="0.5" d="M18.611 3H6.39C4.24 3 2.5 4.8 2.5 7.02C2.5 8.925 3.78 10.52 5.5 10.935V10C5.5 8.114 5.5 7.172 6.086 6.586C6.672 6 7.614 6 9.5 6H15.5C17.386 6 18.328 6 18.914 6.586C19.5 7.172 19.5 8.114 19.5 10V10.935C21.22 10.52 22.5 8.925 22.5 7.02C22.5 4.8 20.759 3 18.611 3Z" fill="#518C51"/>
</svg>
