<svg width="25" height="24" viewBox="0 0 25 24" fill="none" xmlns="http://www.w3.org/2000/svg">
<g opacity="0.4">
<path fill-rule="evenodd" clip-rule="evenodd" d="M14.917 2.5C14.917 2.4337 14.8907 2.37011 14.8438 2.32322C14.7969 2.27634 14.7333 2.25 14.667 2.25H7.66699C6.93765 2.25 6.23817 2.53973 5.72245 3.05546C5.20672 3.57118 4.91699 4.27065 4.91699 5V19C4.91699 19.7293 5.20672 20.4288 5.72245 20.9445C6.23817 21.4603 6.93765 21.75 7.66699 21.75H17.667C18.3963 21.75 19.0958 21.4603 19.6115 20.9445C20.1273 20.4288 20.417 19.7293 20.417 19V9.147C20.417 9.0807 20.3907 9.01711 20.3438 8.97022C20.2969 8.92334 20.2333 8.897 20.167 8.897H15.667C15.4681 8.897 15.2773 8.81798 15.1367 8.67733C14.996 8.53668 14.917 8.34591 14.917 8.147V2.5ZM15.667 12.25C15.8659 12.25 16.0567 12.329 16.1973 12.4697C16.338 12.6103 16.417 12.8011 16.417 13C16.417 13.1989 16.338 13.3897 16.1973 13.5303C16.0567 13.671 15.8659 13.75 15.667 13.75H9.66699C9.46808 13.75 9.27731 13.671 9.13666 13.5303C8.99601 13.3897 8.91699 13.1989 8.91699 13C8.91699 12.8011 8.99601 12.6103 9.13666 12.4697C9.27731 12.329 9.46808 12.25 9.66699 12.25H15.667ZM15.667 16.25C15.8659 16.25 16.0567 16.329 16.1973 16.4697C16.338 16.6103 16.417 16.8011 16.417 17C16.417 17.1989 16.338 17.3897 16.1973 17.5303C16.0567 17.671 15.8659 17.75 15.667 17.75H9.66699C9.46808 17.75 9.27731 17.671 9.13666 17.5303C8.99601 17.3897 8.91699 17.1989 8.91699 17C8.91699 16.8011 8.99601 16.6103 9.13666 16.4697C9.27731 16.329 9.46808 16.25 9.66699 16.25H15.667Z" fill="#333333"/>
<path d="M16.417 2.82396C16.417 2.63996 16.61 2.52296 16.753 2.63796C16.874 2.73596 16.983 2.84996 17.076 2.97996L20.089 7.17696C20.157 7.27296 20.083 7.39696 19.965 7.39696H16.667C16.6007 7.39696 16.5371 7.37062 16.4902 7.32373C16.4433 7.27685 16.417 7.21326 16.417 7.14696V2.82396Z" fill="#518C51"/>
</g>
</svg>
